<svg width="240" height="62" viewBox="0 0 240 62" fill="none" xmlns="http://www.w3.org/2000/svg">
<rect width="240" height="62" fill="#3B5998"/>
<path d="M42 15.832V17.64H37.344V20.504H40.912V22.28H37.344V27H35.104V15.832H42ZM43.0124 22.536C43.0124 21.64 43.1884 20.8453 43.5404 20.152C43.903 19.4587 44.3884 18.9253 44.9964 18.552C45.615 18.1787 46.303 17.992 47.0604 17.992C47.7217 17.992 48.2977 18.1253 48.7884 18.392C49.2897 18.6587 49.6897 18.9947 49.9884 19.4V18.136H52.2444V27H49.9884V25.704C49.7004 26.12 49.3004 26.4667 48.7884 26.744C48.287 27.0107 47.7057 27.144 47.0444 27.144C46.2977 27.144 45.615 26.952 44.9964 26.568C44.3884 26.184 43.903 25.6453 43.5404 24.952C43.1884 24.248 43.0124 23.4427 43.0124 22.536ZM49.9884 22.568C49.9884 22.024 49.8817 21.56 49.6684 21.176C49.455 20.7813 49.167 20.4827 48.8044 20.28C48.4417 20.0667 48.0524 19.96 47.6364 19.96C47.2204 19.96 46.8364 20.0613 46.4844 20.264C46.1324 20.4667 45.8444 20.7653 45.6204 21.16C45.407 21.544 45.3004 22.0027 45.3004 22.536C45.3004 23.0693 45.407 23.5387 45.6204 23.944C45.8444 24.3387 46.1324 24.6427 46.4844 24.856C46.847 25.0693 47.231 25.176 47.6364 25.176C48.0524 25.176 48.4417 25.0747 48.8044 24.872C49.167 24.6587 49.455 24.36 49.6684 23.976C49.8817 23.5813 49.9884 23.112 49.9884 22.568ZM53.8561 22.568C53.8561 21.6507 54.0428 20.8507 54.4161 20.168C54.7895 19.4747 55.3068 18.9413 55.9681 18.568C56.6295 18.184 57.3868 17.992 58.2401 17.992C59.3388 17.992 60.2455 18.2693 60.9601 18.824C61.6855 19.368 62.1708 20.136 62.4161 21.128H60.0001C59.8721 20.744 59.6535 20.4453 59.3441 20.232C59.0455 20.008 58.6721 19.896 58.2241 19.896C57.5841 19.896 57.0775 20.1307 56.7041 20.6C56.3308 21.0587 56.1441 21.7147 56.1441 22.568C56.1441 23.4107 56.3308 24.0667 56.7041 24.536C57.0775 24.9947 57.5841 25.224 58.2241 25.224C59.1308 25.224 59.7228 24.8187 60.0001 24.008H62.4161C62.1708 24.968 61.6855 25.7307 60.9601 26.296C60.2348 26.8613 59.3281 27.144 58.2401 27.144C57.3868 27.144 56.6295 26.9573 55.9681 26.584C55.3068 26.2 54.7895 25.6667 54.4161 24.984C54.0428 24.2907 53.8561 23.4853 53.8561 22.568ZM72.2971 22.376C72.2971 22.696 72.2758 22.984 72.2331 23.24H65.7531C65.8065 23.88 66.0305 24.3813 66.4251 24.744C66.8198 25.1067 67.3051 25.288 67.8811 25.288C68.7131 25.288 69.3051 24.9307 69.6571 24.216H72.0731C71.8171 25.0693 71.3265 25.7733 70.6011 26.328C69.8758 26.872 68.9851 27.144 67.9291 27.144C67.0758 27.144 66.3078 26.9573 65.6251 26.584C64.9531 26.2 64.4251 25.6613 64.0411 24.968C63.6678 24.2747 63.4811 23.4747 63.4811 22.568C63.4811 21.6507 63.6678 20.8453 64.0411 20.152C64.4145 19.4587 64.9371 18.9253 65.6091 18.552C66.2811 18.1787 67.0545 17.992 67.9291 17.992C68.7718 17.992 69.5238 18.1733 70.1851 18.536C70.8571 18.8987 71.3745 19.416 71.7371 20.088C72.1105 20.7493 72.2971 21.512 72.2971 22.376ZM69.9771 21.736C69.9665 21.16 69.7585 20.7013 69.3531 20.36C68.9478 20.008 68.4518 19.832 67.8651 19.832C67.3105 19.832 66.8411 20.0027 66.4571 20.344C66.0838 20.6747 65.8545 21.1387 65.7691 21.736H69.9771ZM76.1721 19.432C76.4601 19.0053 76.8548 18.6587 77.3561 18.392C77.8681 18.1253 78.4495 17.992 79.1001 17.992C79.8575 17.992 80.5401 18.1787 81.1481 18.552C81.7668 18.9253 82.2521 19.4587 82.6041 20.152C82.9668 20.8347 83.1481 21.6293 83.1481 22.536C83.1481 23.4427 82.9668 24.248 82.6041 24.952C82.2521 25.6453 81.7668 26.184 81.1481 26.568C80.5401 26.952 79.8575 27.144 79.1001 27.144C78.4388 27.144 77.8575 27.016 77.3561 26.76C76.8655 26.4933 76.4708 26.152 76.1721 25.736V27H73.9321V15.16H76.1721V19.432ZM80.8601 22.536C80.8601 22.0027 80.7481 21.544 80.5241 21.16C80.3108 20.7653 80.0228 20.4667 79.6601 20.264C79.3081 20.0613 78.9241 19.96 78.5081 19.96C78.1028 19.96 77.7188 20.0667 77.3561 20.28C77.0041 20.4827 76.7161 20.7813 76.4921 21.176C76.2788 21.5707 76.1721 22.0347 76.1721 22.568C76.1721 23.1013 76.2788 23.5653 76.4921 23.96C76.7161 24.3547 77.0041 24.6587 77.3561 24.872C77.7188 25.0747 78.1028 25.176 78.5081 25.176C78.9241 25.176 79.3081 25.0693 79.6601 24.856C80.0228 24.6427 80.3108 24.3387 80.5241 23.944C80.7481 23.5493 80.8601 23.08 80.8601 22.536ZM88.7119 27.144C87.8585 27.144 87.0905 26.9573 86.4079 26.584C85.7252 26.2 85.1865 25.6613 84.7919 24.968C84.4079 24.2747 84.2159 23.4747 84.2159 22.568C84.2159 21.6613 84.4132 20.8613 84.8079 20.168C85.2132 19.4747 85.7625 18.9413 86.4559 18.568C87.1492 18.184 87.9225 17.992 88.7759 17.992C89.6292 17.992 90.4025 18.184 91.0959 18.568C91.7892 18.9413 92.3332 19.4747 92.7279 20.168C93.1332 20.8613 93.3359 21.6613 93.3359 22.568C93.3359 23.4747 93.1279 24.2747 92.7119 24.968C92.3065 25.6613 91.7519 26.2 91.0479 26.584C90.3545 26.9573 89.5759 27.144 88.7119 27.144ZM88.7119 25.192C89.1172 25.192 89.4959 25.096 89.8479 24.904C90.2105 24.7013 90.4985 24.4027 90.7119 24.008C90.9252 23.6133 91.0319 23.1333 91.0319 22.568C91.0319 21.7253 90.8079 21.08 90.3599 20.632C89.9225 20.1733 89.3839 19.944 88.7439 19.944C88.1039 19.944 87.5652 20.1733 87.1279 20.632C86.7012 21.08 86.4879 21.7253 86.4879 22.568C86.4879 23.4107 86.6959 24.0613 87.1119 24.52C87.5385 24.968 88.0719 25.192 88.7119 25.192ZM98.915 27.144C98.0617 27.144 97.2937 26.9573 96.611 26.584C95.9283 26.2 95.3897 25.6613 94.995 24.968C94.611 24.2747 94.419 23.4747 94.419 22.568C94.419 21.6613 94.6163 20.8613 95.011 20.168C95.4163 19.4747 95.9657 18.9413 96.659 18.568C97.3523 18.184 98.1257 17.992 98.979 17.992C99.8323 17.992 100.606 18.184 101.299 18.568C101.992 18.9413 102.536 19.4747 102.931 20.168C103.336 20.8613 103.539 21.6613 103.539 22.568C103.539 23.4747 103.331 24.2747 102.915 24.968C102.51 25.6613 101.955 26.2 101.251 26.584C100.558 26.9573 99.779 27.144 98.915 27.144ZM98.915 25.192C99.3203 25.192 99.699 25.096 100.051 24.904C100.414 24.7013 100.702 24.4027 100.915 24.008C101.128 23.6133 101.235 23.1333 101.235 22.568C101.235 21.7253 101.011 21.08 100.563 20.632C100.126 20.1733 99.587 19.944 98.947 19.944C98.307 19.944 97.7683 20.1733 97.331 20.632C96.9043 21.08 96.691 21.7253 96.691 22.568C96.691 23.4107 96.899 24.0613 97.315 24.52C97.7417 24.968 98.275 25.192 98.915 25.192ZM110.43 27L107.422 23.224V27H105.182V15.16H107.422V21.896L110.398 18.136H113.31L109.406 22.584L113.342 27H110.43Z" fill="white"/>
<path d="M39.652 38.636V39.524H36.016V42.344H38.968V43.232H36.016V47H34.924V38.636H39.652ZM43.8389 47.108C43.2229 47.108 42.6629 46.968 42.1589 46.688C41.6629 46.408 41.2709 46.012 40.9829 45.5C40.7029 44.98 40.5629 44.38 40.5629 43.7C40.5629 43.028 40.7069 42.436 40.9949 41.924C41.2909 41.404 41.6909 41.008 42.1949 40.736C42.6989 40.456 43.2629 40.316 43.8869 40.316C44.5109 40.316 45.0749 40.456 45.5789 40.736C46.0829 41.008 46.4789 41.4 46.7669 41.912C47.0629 42.424 47.2109 43.02 47.2109 43.7C47.2109 44.38 47.0589 44.98 46.7549 45.5C46.4589 46.012 46.0549 46.408 45.5429 46.688C45.0309 46.968 44.4629 47.108 43.8389 47.108ZM43.8389 46.148C44.2309 46.148 44.5989 46.056 44.9429 45.872C45.2869 45.688 45.5629 45.412 45.7709 45.044C45.9869 44.676 46.0949 44.228 46.0949 43.7C46.0949 43.172 45.9909 42.724 45.7829 42.356C45.5749 41.988 45.3029 41.716 44.9669 41.54C44.6309 41.356 44.2669 41.264 43.8749 41.264C43.4749 41.264 43.1069 41.356 42.7709 41.54C42.4429 41.716 42.1789 41.988 41.9789 42.356C41.7789 42.724 41.6789 43.172 41.6789 43.7C41.6789 44.236 41.7749 44.688 41.9669 45.056C42.1669 45.424 42.4309 45.7 42.7589 45.884C43.0869 46.06 43.4469 46.148 43.8389 46.148ZM49.7387 38.12V47H48.6467V38.12H49.7387ZM52.6918 38.12V47H51.5998V38.12H52.6918ZM57.4209 47.108C56.8049 47.108 56.2449 46.968 55.7409 46.688C55.2449 46.408 54.8529 46.012 54.5649 45.5C54.2849 44.98 54.1449 44.38 54.1449 43.7C54.1449 43.028 54.2889 42.436 54.5769 41.924C54.8729 41.404 55.2729 41.008 55.7769 40.736C56.2809 40.456 56.8449 40.316 57.4689 40.316C58.0929 40.316 58.6569 40.456 59.1609 40.736C59.6649 41.008 60.0609 41.4 60.3489 41.912C60.6449 42.424 60.7929 43.02 60.7929 43.7C60.7929 44.38 60.6409 44.98 60.3369 45.5C60.0409 46.012 59.6369 46.408 59.1249 46.688C58.6129 46.968 58.0449 47.108 57.4209 47.108ZM57.4209 46.148C57.8129 46.148 58.1809 46.056 58.5249 45.872C58.8689 45.688 59.1449 45.412 59.3529 45.044C59.5689 44.676 59.6769 44.228 59.6769 43.7C59.6769 43.172 59.5729 42.724 59.3649 42.356C59.1569 41.988 58.8849 41.716 58.5489 41.54C58.2129 41.356 57.8489 41.264 57.4569 41.264C57.0569 41.264 56.6889 41.356 56.3529 41.54C56.0249 41.716 55.7609 41.988 55.5609 42.356C55.3609 42.724 55.2609 43.172 55.2609 43.7C55.2609 44.236 55.3569 44.688 55.5489 45.056C55.7489 45.424 56.0129 45.7 56.3409 45.884C56.6689 46.06 57.0289 46.148 57.4209 46.148ZM70.9887 40.424L68.9367 47H67.8087L66.2247 41.78L64.6407 47H63.5127L61.4487 40.424H62.5647L64.0767 45.944L65.7087 40.424H66.8247L68.4207 45.956L69.9087 40.424H70.9887ZM83.1797 40.304C83.6917 40.304 84.1477 40.412 84.5477 40.628C84.9477 40.836 85.2637 41.152 85.4957 41.576C85.7277 42 85.8437 42.516 85.8437 43.124V47H84.7637V43.28C84.7637 42.624 84.5997 42.124 84.2717 41.78C83.9517 41.428 83.5157 41.252 82.9637 41.252C82.3957 41.252 81.9437 41.436 81.6077 41.804C81.2717 42.164 81.1037 42.688 81.1037 43.376V47H80.0237V43.28C80.0237 42.624 79.8597 42.124 79.5317 41.78C79.2117 41.428 78.7757 41.252 78.2237 41.252C77.6557 41.252 77.2037 41.436 76.8677 41.804C76.5317 42.164 76.3637 42.688 76.3637 43.376V47H75.2717V40.424H76.3637V41.372C76.5797 41.028 76.8677 40.764 77.2277 40.58C77.5957 40.396 77.9997 40.304 78.4397 40.304C78.9917 40.304 79.4797 40.428 79.9037 40.676C80.3277 40.924 80.6437 41.288 80.8517 41.768C81.0357 41.304 81.3397 40.944 81.7637 40.688C82.1877 40.432 82.6597 40.304 83.1797 40.304ZM93.6349 43.46C93.6349 43.668 93.6229 43.888 93.5989 44.12H88.3429C88.3829 44.768 88.6029 45.276 89.0029 45.644C89.4109 46.004 89.9029 46.184 90.4789 46.184C90.9509 46.184 91.3429 46.076 91.6549 45.86C91.9749 45.636 92.1989 45.34 92.3269 44.972H93.5029C93.3269 45.604 92.9749 46.12 92.4469 46.52C91.9189 46.912 91.2629 47.108 90.4789 47.108C89.8549 47.108 89.2949 46.968 88.7989 46.688C88.3109 46.408 87.9269 46.012 87.6469 45.5C87.3669 44.98 87.2269 44.38 87.2269 43.7C87.2269 43.02 87.3629 42.424 87.6349 41.912C87.9069 41.4 88.2869 41.008 88.7749 40.736C89.2709 40.456 89.8389 40.316 90.4789 40.316C91.1029 40.316 91.6549 40.452 92.1349 40.724C92.6149 40.996 92.9829 41.372 93.2389 41.852C93.5029 42.324 93.6349 42.86 93.6349 43.46ZM92.5069 43.232C92.5069 42.816 92.4149 42.46 92.2309 42.164C92.0469 41.86 91.7949 41.632 91.4749 41.48C91.1629 41.32 90.8149 41.24 90.4309 41.24C89.8789 41.24 89.4069 41.416 89.0149 41.768C88.6309 42.12 88.4109 42.608 88.3549 43.232H92.5069ZM96.4923 38.636L96.3603 44.636H95.4483L95.3163 38.636H96.4923ZM95.9523 47.072C95.7443 47.072 95.5683 47 95.4243 46.856C95.2803 46.712 95.2083 46.536 95.2083 46.328C95.2083 46.12 95.2803 45.944 95.4243 45.8C95.5683 45.656 95.7443 45.584 95.9523 45.584C96.1523 45.584 96.3203 45.656 96.4563 45.8C96.6003 45.944 96.6723 46.12 96.6723 46.328C96.6723 46.536 96.6003 46.712 96.4563 46.856C96.3203 47 96.1523 47.072 95.9523 47.072Z" fill="white"/>
<path d="M197.417 17H194.167C192.73 17 191.352 17.5707 190.337 18.5865C189.321 19.6023 188.75 20.9801 188.75 22.4167V25.6667H185.5V30H188.75V38.6667H193.083V30H196.333L197.417 25.6667H193.083V22.4167C193.083 22.1293 193.197 21.8538 193.401 21.6506C193.604 21.4475 193.879 21.3333 194.167 21.3333H197.417V17Z" fill="white"/>
</svg>
