<svg width="240" height="62" viewBox="0 0 240 62" fill="none" xmlns="http://www.w3.org/2000/svg">
<rect width="240" height="62" fill="#FD378A"/>
<path d="M37.344 15.832V27H35.104V15.832H37.344ZM44.4691 18.008C45.5251 18.008 46.3785 18.344 47.0291 19.016C47.6798 19.6773 48.0051 20.6053 48.0051 21.8V27H45.7651V22.104C45.7651 21.4 45.5891 20.8613 45.2371 20.488C44.8851 20.104 44.4051 19.912 43.7971 19.912C43.1785 19.912 42.6878 20.104 42.3251 20.488C41.9731 20.8613 41.7971 21.4 41.7971 22.104V27H39.5571V18.136H41.7971V19.24C42.0958 18.856 42.4745 18.5573 42.9331 18.344C43.4025 18.12 43.9145 18.008 44.4691 18.008ZM53.5273 27.144C52.8019 27.144 52.1513 27.016 51.5753 26.76C50.9993 26.4933 50.5406 26.136 50.1993 25.688C49.8686 25.24 49.6873 24.744 49.6553 24.2H51.9113C51.9539 24.5413 52.1193 24.824 52.4073 25.048C52.7059 25.272 53.0739 25.384 53.5113 25.384C53.9379 25.384 54.2686 25.2987 54.5033 25.128C54.7486 24.9573 54.8713 24.7387 54.8713 24.472C54.8713 24.184 54.7219 23.9707 54.4233 23.832C54.1353 23.6827 53.6713 23.5227 53.0312 23.352C52.3699 23.192 51.8259 23.0267 51.3993 22.856C50.9833 22.6853 50.6206 22.424 50.3113 22.072C50.0126 21.72 49.8633 21.2453 49.8633 20.648C49.8633 20.1573 50.0019 19.7093 50.2793 19.304C50.5673 18.8987 50.9726 18.5787 51.4953 18.344C52.0286 18.1093 52.6526 17.992 53.3673 17.992C54.4233 17.992 55.2659 18.2587 55.8953 18.792C56.5246 19.3147 56.8713 20.024 56.9353 20.92H54.7913C54.7593 20.568 54.6099 20.2907 54.3433 20.088C54.0873 19.8747 53.7406 19.768 53.3033 19.768C52.8979 19.768 52.5833 19.8427 52.3593 19.992C52.1459 20.1413 52.0393 20.3493 52.0393 20.616C52.0393 20.9147 52.1886 21.144 52.4873 21.304C52.7859 21.4533 53.2499 21.608 53.8793 21.768C54.5193 21.928 55.0473 22.0933 55.4633 22.264C55.8793 22.4347 56.2366 22.7013 56.5353 23.064C56.8446 23.416 57.0046 23.8853 57.0153 24.472C57.0153 24.984 56.8713 25.4427 56.5833 25.848C56.3059 26.2533 55.9006 26.5733 55.3673 26.808C54.8446 27.032 54.2313 27.144 53.5273 27.144ZM61.462 19.976V24.264C61.462 24.5627 61.5313 24.7813 61.67 24.92C61.8193 25.048 62.0647 25.112 62.406 25.112H63.446V27H62.038C60.15 27 59.206 26.0827 59.206 24.248V19.976H58.15V18.136H59.206V15.944H61.462V18.136H63.446V19.976H61.462ZM64.4811 22.536C64.4811 21.64 64.6571 20.8453 65.0091 20.152C65.3718 19.4587 65.8571 18.9253 66.4651 18.552C67.0838 18.1787 67.7718 17.992 68.5291 17.992C69.1905 17.992 69.7665 18.1253 70.2571 18.392C70.7585 18.6587 71.1585 18.9947 71.4571 19.4V18.136H73.7131V27H71.4571V25.704C71.1691 26.12 70.7691 26.4667 70.2571 26.744C69.7558 27.0107 69.1745 27.144 68.5131 27.144C67.7665 27.144 67.0838 26.952 66.4651 26.568C65.8571 26.184 65.3718 25.6453 65.0091 24.952C64.6571 24.248 64.4811 23.4427 64.4811 22.536ZM71.4571 22.568C71.4571 22.024 71.3505 21.56 71.1371 21.176C70.9238 20.7813 70.6358 20.4827 70.2731 20.28C69.9105 20.0667 69.5211 19.96 69.1051 19.96C68.6891 19.96 68.3051 20.0613 67.9531 20.264C67.6011 20.4667 67.3131 20.7653 67.0891 21.16C66.8758 21.544 66.7691 22.0027 66.7691 22.536C66.7691 23.0693 66.8758 23.5387 67.0891 23.944C67.3131 24.3387 67.6011 24.6427 67.9531 24.856C68.3158 25.0693 68.6998 25.176 69.1051 25.176C69.5211 25.176 69.9105 25.0747 70.2731 24.872C70.6358 24.6587 70.9238 24.36 71.1371 23.976C71.3505 23.5813 71.4571 23.112 71.4571 22.568ZM79.3729 17.992C80.0342 17.992 80.6155 18.1253 81.1169 18.392C81.6182 18.648 82.0129 18.984 82.3009 19.4V18.136H84.5569V27.064C84.5569 27.8853 84.3915 28.616 84.0609 29.256C83.7302 29.9067 83.2342 30.4187 82.5729 30.792C81.9115 31.176 81.1115 31.368 80.1729 31.368C78.9142 31.368 77.8795 31.0747 77.0689 30.488C76.2689 29.9013 75.8155 29.1013 75.7089 28.088H77.9329C78.0502 28.4933 78.3009 28.8133 78.6849 29.048C79.0795 29.2933 79.5542 29.416 80.1089 29.416C80.7595 29.416 81.2875 29.2187 81.6929 28.824C82.0982 28.44 82.3009 27.8533 82.3009 27.064V25.688C82.0129 26.104 81.6129 26.4507 81.1009 26.728C80.5995 27.0053 80.0235 27.144 79.3729 27.144C78.6262 27.144 77.9435 26.952 77.3249 26.568C76.7062 26.184 76.2155 25.6453 75.8529 24.952C75.5009 24.248 75.3249 23.4427 75.3249 22.536C75.3249 21.64 75.5009 20.8453 75.8529 20.152C76.2155 19.4587 76.7009 18.9253 77.3089 18.552C77.9275 18.1787 78.6155 17.992 79.3729 17.992ZM82.3009 22.568C82.3009 22.024 82.1942 21.56 81.9809 21.176C81.7675 20.7813 81.4795 20.4827 81.1169 20.28C80.7542 20.0667 80.3649 19.96 79.9489 19.96C79.5329 19.96 79.1489 20.0613 78.7969 20.264C78.4449 20.4667 78.1569 20.7653 77.9329 21.16C77.7195 21.544 77.6129 22.0027 77.6129 22.536C77.6129 23.0693 77.7195 23.5387 77.9329 23.944C78.1569 24.3387 78.4449 24.6427 78.7969 24.856C79.1595 25.0693 79.5435 25.176 79.9489 25.176C80.3649 25.176 80.7542 25.0747 81.1169 24.872C81.4795 24.6587 81.7675 24.36 81.9809 23.976C82.1942 23.5813 82.3009 23.112 82.3009 22.568ZM88.9846 19.512C89.2726 19.0427 89.646 18.6747 90.1046 18.408C90.574 18.1413 91.1073 18.008 91.7046 18.008V20.36H91.1126C90.4086 20.36 89.8753 20.5253 89.5126 20.856C89.1606 21.1867 88.9846 21.7627 88.9846 22.584V27H86.7446V18.136H88.9846V19.512ZM92.6374 22.536C92.6374 21.64 92.8134 20.8453 93.1654 20.152C93.528 19.4587 94.0134 18.9253 94.6214 18.552C95.24 18.1787 95.928 17.992 96.6854 17.992C97.3467 17.992 97.9227 18.1253 98.4134 18.392C98.9147 18.6587 99.3147 18.9947 99.6134 19.4V18.136H101.869V27H99.6134V25.704C99.3254 26.12 98.9254 26.4667 98.4134 26.744C97.912 27.0107 97.3307 27.144 96.6694 27.144C95.9227 27.144 95.24 26.952 94.6214 26.568C94.0134 26.184 93.528 25.6453 93.1654 24.952C92.8134 24.248 92.6374 23.4427 92.6374 22.536ZM99.6134 22.568C99.6134 22.024 99.5067 21.56 99.2934 21.176C99.08 20.7813 98.792 20.4827 98.4294 20.28C98.0667 20.0667 97.6774 19.96 97.2614 19.96C96.8454 19.96 96.4614 20.0613 96.1094 20.264C95.7574 20.4667 95.4694 20.7653 95.2454 21.16C95.032 21.544 94.9254 22.0027 94.9254 22.536C94.9254 23.0693 95.032 23.5387 95.2454 23.944C95.4694 24.3387 95.7574 24.6427 96.1094 24.856C96.472 25.0693 96.856 25.176 97.2614 25.176C97.6774 25.176 98.0667 25.0747 98.4294 24.872C98.792 24.6587 99.08 24.36 99.2934 23.976C99.5067 23.5813 99.6134 23.112 99.6134 22.568ZM115.065 18.008C116.153 18.008 117.028 18.344 117.689 19.016C118.361 19.6773 118.697 20.6053 118.697 21.8V27H116.457V22.104C116.457 21.4107 116.281 20.8827 115.929 20.52C115.577 20.1467 115.097 19.96 114.489 19.96C113.881 19.96 113.396 20.1467 113.033 20.52C112.681 20.8827 112.505 21.4107 112.505 22.104V27H110.265V22.104C110.265 21.4107 110.089 20.8827 109.737 20.52C109.385 20.1467 108.905 19.96 108.297 19.96C107.678 19.96 107.188 20.1467 106.825 20.52C106.473 20.8827 106.297 21.4107 106.297 22.104V27H104.057V18.136H106.297V19.208C106.585 18.8347 106.953 18.5413 107.401 18.328C107.86 18.1147 108.361 18.008 108.905 18.008C109.598 18.008 110.217 18.1573 110.761 18.456C111.305 18.744 111.726 19.16 112.025 19.704C112.313 19.192 112.729 18.7813 113.273 18.472C113.828 18.1627 114.425 18.008 115.065 18.008Z" fill="white"/>
<path d="M39.652 38.636V39.524H36.016V42.344H38.968V43.232H36.016V47H34.924V38.636H39.652ZM43.8389 47.108C43.2229 47.108 42.6629 46.968 42.1589 46.688C41.6629 46.408 41.2709 46.012 40.9829 45.5C40.7029 44.98 40.5629 44.38 40.5629 43.7C40.5629 43.028 40.7069 42.436 40.9949 41.924C41.2909 41.404 41.6909 41.008 42.1949 40.736C42.6989 40.456 43.2629 40.316 43.8869 40.316C44.5109 40.316 45.0749 40.456 45.5789 40.736C46.0829 41.008 46.4789 41.4 46.7669 41.912C47.0629 42.424 47.2109 43.02 47.2109 43.7C47.2109 44.38 47.0589 44.98 46.7549 45.5C46.4589 46.012 46.0549 46.408 45.5429 46.688C45.0309 46.968 44.4629 47.108 43.8389 47.108ZM43.8389 46.148C44.2309 46.148 44.5989 46.056 44.9429 45.872C45.2869 45.688 45.5629 45.412 45.7709 45.044C45.9869 44.676 46.0949 44.228 46.0949 43.7C46.0949 43.172 45.9909 42.724 45.7829 42.356C45.5749 41.988 45.3029 41.716 44.9669 41.54C44.6309 41.356 44.2669 41.264 43.8749 41.264C43.4749 41.264 43.1069 41.356 42.7709 41.54C42.4429 41.716 42.1789 41.988 41.9789 42.356C41.7789 42.724 41.6789 43.172 41.6789 43.7C41.6789 44.236 41.7749 44.688 41.9669 45.056C42.1669 45.424 42.4309 45.7 42.7589 45.884C43.0869 46.06 43.4469 46.148 43.8389 46.148ZM49.7387 38.12V47H48.6467V38.12H49.7387ZM52.6918 38.12V47H51.5998V38.12H52.6918ZM57.4209 47.108C56.8049 47.108 56.2449 46.968 55.7409 46.688C55.2449 46.408 54.8529 46.012 54.5649 45.5C54.2849 44.98 54.1449 44.38 54.1449 43.7C54.1449 43.028 54.2889 42.436 54.5769 41.924C54.8729 41.404 55.2729 41.008 55.7769 40.736C56.2809 40.456 56.8449 40.316 57.4689 40.316C58.0929 40.316 58.6569 40.456 59.1609 40.736C59.6649 41.008 60.0609 41.4 60.3489 41.912C60.6449 42.424 60.7929 43.02 60.7929 43.7C60.7929 44.38 60.6409 44.98 60.3369 45.5C60.0409 46.012 59.6369 46.408 59.1249 46.688C58.6129 46.968 58.0449 47.108 57.4209 47.108ZM57.4209 46.148C57.8129 46.148 58.1809 46.056 58.5249 45.872C58.8689 45.688 59.1449 45.412 59.3529 45.044C59.5689 44.676 59.6769 44.228 59.6769 43.7C59.6769 43.172 59.5729 42.724 59.3649 42.356C59.1569 41.988 58.8849 41.716 58.5489 41.54C58.2129 41.356 57.8489 41.264 57.4569 41.264C57.0569 41.264 56.6889 41.356 56.3529 41.54C56.0249 41.716 55.7609 41.988 55.5609 42.356C55.3609 42.724 55.2609 43.172 55.2609 43.7C55.2609 44.236 55.3569 44.688 55.5489 45.056C55.7489 45.424 56.0129 45.7 56.3409 45.884C56.6689 46.06 57.0289 46.148 57.4209 46.148ZM70.9887 40.424L68.9367 47H67.8087L66.2247 41.78L64.6407 47H63.5127L61.4487 40.424H62.5647L64.0767 45.944L65.7087 40.424H66.8247L68.4207 45.956L69.9087 40.424H70.9887ZM83.1797 40.304C83.6917 40.304 84.1477 40.412 84.5477 40.628C84.9477 40.836 85.2637 41.152 85.4957 41.576C85.7277 42 85.8437 42.516 85.8437 43.124V47H84.7637V43.28C84.7637 42.624 84.5997 42.124 84.2717 41.78C83.9517 41.428 83.5157 41.252 82.9637 41.252C82.3957 41.252 81.9437 41.436 81.6077 41.804C81.2717 42.164 81.1037 42.688 81.1037 43.376V47H80.0237V43.28C80.0237 42.624 79.8597 42.124 79.5317 41.78C79.2117 41.428 78.7757 41.252 78.2237 41.252C77.6557 41.252 77.2037 41.436 76.8677 41.804C76.5317 42.164 76.3637 42.688 76.3637 43.376V47H75.2717V40.424H76.3637V41.372C76.5797 41.028 76.8677 40.764 77.2277 40.58C77.5957 40.396 77.9997 40.304 78.4397 40.304C78.9917 40.304 79.4797 40.428 79.9037 40.676C80.3277 40.924 80.6437 41.288 80.8517 41.768C81.0357 41.304 81.3397 40.944 81.7637 40.688C82.1877 40.432 82.6597 40.304 83.1797 40.304ZM93.6349 43.46C93.6349 43.668 93.6229 43.888 93.5989 44.12H88.3429C88.3829 44.768 88.6029 45.276 89.0029 45.644C89.4109 46.004 89.9029 46.184 90.4789 46.184C90.9509 46.184 91.3429 46.076 91.6549 45.86C91.9749 45.636 92.1989 45.34 92.3269 44.972H93.5029C93.3269 45.604 92.9749 46.12 92.4469 46.52C91.9189 46.912 91.2629 47.108 90.4789 47.108C89.8549 47.108 89.2949 46.968 88.7989 46.688C88.3109 46.408 87.9269 46.012 87.6469 45.5C87.3669 44.98 87.2269 44.38 87.2269 43.7C87.2269 43.02 87.3629 42.424 87.6349 41.912C87.9069 41.4 88.2869 41.008 88.7749 40.736C89.2709 40.456 89.8389 40.316 90.4789 40.316C91.1029 40.316 91.6549 40.452 92.1349 40.724C92.6149 40.996 92.9829 41.372 93.2389 41.852C93.5029 42.324 93.6349 42.86 93.6349 43.46ZM92.5069 43.232C92.5069 42.816 92.4149 42.46 92.2309 42.164C92.0469 41.86 91.7949 41.632 91.4749 41.48C91.1629 41.32 90.8149 41.24 90.4309 41.24C89.8789 41.24 89.4069 41.416 89.0149 41.768C88.6309 42.12 88.4109 42.608 88.3549 43.232H92.5069ZM96.4923 38.636L96.3603 44.636H95.4483L95.3163 38.636H96.4923ZM95.9523 47.072C95.7443 47.072 95.5683 47 95.4243 46.856C95.2803 46.712 95.2083 46.536 95.2083 46.328C95.2083 46.12 95.2803 45.944 95.4243 45.8C95.5683 45.656 95.7443 45.584 95.9523 45.584C96.1523 45.584 96.3203 45.656 96.4563 45.8C96.6003 45.944 96.6723 46.12 96.6723 46.328C96.6723 46.536 96.6003 46.712 96.4563 46.856C96.3203 47 96.1523 47.072 95.9523 47.072Z" fill="white"/>
<path d="M192.001 17C188.47 17 188.027 17.0154 186.64 17.0785C185.257 17.1419 184.312 17.361 183.485 17.6825C182.63 18.0145 181.905 18.4587 181.182 19.1816C180.459 19.9041 180.015 20.6294 179.682 21.4842C179.36 22.311 179.14 23.256 179.078 24.6394C179.016 26.0261 179 26.4694 179 30C179 33.5306 179.016 33.9723 179.079 35.359C179.142 36.7429 179.361 37.6876 179.683 38.5142C180.015 39.3692 180.459 40.0945 181.182 40.8171C181.904 41.5402 182.629 41.9855 183.484 42.3175C184.311 42.639 185.256 42.8581 186.64 42.9215C188.026 42.9846 188.469 43 191.999 43C195.53 43 195.972 42.9846 197.359 42.9215C198.743 42.8581 199.688 42.639 200.516 42.3175C201.37 41.9855 202.094 41.5402 202.817 40.8171C203.54 40.0945 203.984 39.3692 204.317 38.5145C204.637 37.6876 204.856 36.7427 204.921 35.3593C204.983 33.9726 205 33.5306 205 30C205 26.4694 204.983 26.0263 204.921 24.6397C204.856 23.2557 204.637 22.311 204.317 21.4845C203.984 20.6294 203.54 19.9041 202.817 19.1816C202.094 18.4584 201.371 18.0143 200.515 17.6825C199.686 17.361 198.741 17.1419 197.357 17.0785C195.97 17.0154 195.529 17 191.997 17H192.001ZM190.835 19.3427C191.181 19.3422 191.567 19.3427 192.001 19.3427C195.472 19.3427 195.883 19.3552 197.254 19.4175C198.521 19.4754 199.209 19.6872 199.668 19.8651C200.274 20.1008 200.707 20.3824 201.161 20.8374C201.616 21.2924 201.898 21.7258 202.134 22.3324C202.312 22.7901 202.524 23.4781 202.582 24.7456C202.644 26.116 202.658 26.5276 202.658 29.997C202.658 33.4664 202.644 33.8781 202.582 35.2485C202.524 36.516 202.312 37.2039 202.134 37.6616C201.899 38.2683 201.616 38.7003 201.161 39.155C200.706 39.61 200.274 39.8916 199.668 40.1273C199.21 40.306 198.521 40.5173 197.254 40.5752C195.883 40.6375 195.472 40.6511 192.001 40.6511C188.53 40.6511 188.118 40.6375 186.748 40.5752C185.48 40.5167 184.792 40.3049 184.334 40.127C183.727 39.8914 183.294 39.6097 182.839 39.1547C182.384 38.6997 182.102 38.2675 181.866 37.6605C181.688 37.2028 181.476 36.5149 181.418 35.2474C181.356 33.877 181.344 33.4653 181.344 29.9938C181.344 26.5222 181.356 26.1127 181.418 24.7423C181.476 23.4748 181.688 22.7869 181.866 22.3286C182.102 21.722 182.384 21.2886 182.839 20.8336C183.294 20.3786 183.727 20.097 184.334 19.8608C184.792 19.6821 185.48 19.4708 186.748 19.4126C187.947 19.3584 188.412 19.3422 190.835 19.3395V19.3427ZM198.94 21.5012C198.632 21.5012 198.33 21.5928 198.073 21.7642C197.817 21.9356 197.617 22.1793 197.499 22.4644C197.381 22.7495 197.35 23.0632 197.41 23.3658C197.47 23.6684 197.619 23.9464 197.837 24.1645C198.055 24.3827 198.333 24.5312 198.636 24.5913C198.939 24.6515 199.252 24.6205 199.537 24.5023C199.823 24.3842 200.066 24.1842 200.237 23.9275C200.409 23.6709 200.5 23.3693 200.5 23.0607C200.5 22.1995 199.801 21.5007 198.94 21.5007V21.5012ZM192.001 23.324C188.314 23.324 185.325 26.3131 185.325 30C185.325 33.6869 188.314 36.6747 192.001 36.6747C195.688 36.6747 198.676 33.6869 198.676 30C198.676 26.3131 195.687 23.324 192.001 23.324H192.001ZM192.001 25.6667C194.394 25.6667 196.334 27.6066 196.334 30C196.334 32.3931 194.394 34.3333 192.001 34.3333C189.607 34.3333 187.667 32.3931 187.667 30C187.667 27.6066 189.607 25.6667 192.001 25.6667Z" fill="white"/>
</svg>
