<svg width="240" height="62" viewBox="0 0 240 62" fill="none" xmlns="http://www.w3.org/2000/svg">
<rect width="240" height="62" fill="#CE0015"/>
<path d="M37.344 25.224H41.024V27H35.104V15.832H37.344V25.224ZM43.5838 17.08C43.1891 17.08 42.8584 16.9573 42.5918 16.712C42.3358 16.456 42.2078 16.1413 42.2078 15.768C42.2078 15.3947 42.3358 15.0853 42.5918 14.84C42.8584 14.584 43.1891 14.456 43.5838 14.456C43.9784 14.456 44.3038 14.584 44.5598 14.84C44.8264 15.0853 44.9598 15.3947 44.9598 15.768C44.9598 16.1413 44.8264 16.456 44.5598 16.712C44.3038 16.9573 43.9784 17.08 43.5838 17.08ZM44.6878 18.136V27H42.4478V18.136H44.6878ZM51.8129 18.008C52.8689 18.008 53.7222 18.344 54.3729 19.016C55.0235 19.6773 55.3489 20.6053 55.3489 21.8V27H53.1089V22.104C53.1089 21.4 52.9329 20.8613 52.5809 20.488C52.2289 20.104 51.7489 19.912 51.1409 19.912C50.5222 19.912 50.0315 20.104 49.6689 20.488C49.3169 20.8613 49.1409 21.4 49.1409 22.104V27H46.9009V18.136H49.1409V19.24C49.4395 18.856 49.8182 18.5573 50.2769 18.344C50.7462 18.12 51.2582 18.008 51.8129 18.008ZM62.727 27L59.719 23.224V27H57.479V15.16H59.719V21.896L62.695 18.136H65.607L61.703 22.584L65.639 27H62.727ZM75.0628 22.376C75.0628 22.696 75.0414 22.984 74.9988 23.24H68.5188C68.5721 23.88 68.7961 24.3813 69.1908 24.744C69.5854 25.1067 70.0708 25.288 70.6468 25.288C71.4788 25.288 72.0708 24.9307 72.4228 24.216H74.8388C74.5828 25.0693 74.0921 25.7733 73.3668 26.328C72.6414 26.872 71.7508 27.144 70.6948 27.144C69.8414 27.144 69.0734 26.9573 68.3908 26.584C67.7188 26.2 67.1908 25.6613 66.8068 24.968C66.4334 24.2747 66.2467 23.4747 66.2467 22.568C66.2467 21.6507 66.4334 20.8453 66.8068 20.152C67.1801 19.4587 67.7028 18.9253 68.3748 18.552C69.0468 18.1787 69.8201 17.992 70.6948 17.992C71.5374 17.992 72.2894 18.1733 72.9508 18.536C73.6228 18.8987 74.1401 19.416 74.5028 20.088C74.8761 20.7493 75.0628 21.512 75.0628 22.376ZM72.7428 21.736C72.7321 21.16 72.5241 20.7013 72.1188 20.36C71.7134 20.008 71.2174 19.832 70.6308 19.832C70.0761 19.832 69.6068 20.0027 69.2228 20.344C68.8494 20.6747 68.6201 21.1387 68.5348 21.736H72.7428ZM76.1217 22.536C76.1217 21.64 76.2977 20.8453 76.6497 20.152C77.0124 19.4587 77.5031 18.9253 78.1218 18.552C78.7404 18.1787 79.4284 17.992 80.1858 17.992C80.7618 17.992 81.3111 18.12 81.8338 18.376C82.3564 18.6213 82.7724 18.952 83.0818 19.368V15.16H85.3538V27H83.0818V25.688C82.8044 26.1253 82.4151 26.4773 81.9138 26.744C81.4124 27.0107 80.8311 27.144 80.1698 27.144C79.4231 27.144 78.7404 26.952 78.1218 26.568C77.5031 26.184 77.0124 25.6453 76.6497 24.952C76.2977 24.248 76.1217 23.4427 76.1217 22.536ZM83.0978 22.568C83.0978 22.024 82.9911 21.56 82.7778 21.176C82.5644 20.7813 82.2764 20.4827 81.9138 20.28C81.5511 20.0667 81.1618 19.96 80.7458 19.96C80.3298 19.96 79.9458 20.0613 79.5938 20.264C79.2418 20.4667 78.9538 20.7653 78.7298 21.16C78.5164 21.544 78.4098 22.0027 78.4098 22.536C78.4098 23.0693 78.5164 23.5387 78.7298 23.944C78.9538 24.3387 79.2418 24.6427 79.5938 24.856C79.9564 25.0693 80.3404 25.176 80.7458 25.176C81.1618 25.176 81.5511 25.0747 81.9138 24.872C82.2764 24.6587 82.5644 24.36 82.7778 23.976C82.9911 23.5813 83.0978 23.112 83.0978 22.568ZM88.6775 17.08C88.2828 17.08 87.9522 16.9573 87.6855 16.712C87.4295 16.456 87.3015 16.1413 87.3015 15.768C87.3015 15.3947 87.4295 15.0853 87.6855 14.84C87.9522 14.584 88.2828 14.456 88.6775 14.456C89.0722 14.456 89.3975 14.584 89.6535 14.84C89.9202 15.0853 90.0535 15.3947 90.0535 15.768C90.0535 16.1413 89.9202 16.456 89.6535 16.712C89.3975 16.9573 89.0722 17.08 88.6775 17.08ZM89.7815 18.136V27H87.5415V18.136H89.7815ZM96.9066 18.008C97.9626 18.008 98.816 18.344 99.4666 19.016C100.117 19.6773 100.443 20.6053 100.443 21.8V27H98.2026V22.104C98.2026 21.4 98.0266 20.8613 97.6746 20.488C97.3226 20.104 96.8426 19.912 96.2346 19.912C95.616 19.912 95.1253 20.104 94.7626 20.488C94.4106 20.8613 94.2346 21.4 94.2346 22.104V27H91.9946V18.136H94.2346V19.24C94.5333 18.856 94.912 18.5573 95.3706 18.344C95.84 18.12 96.352 18.008 96.9066 18.008Z" fill="white"/>
<path d="M39.652 38.636V39.524H36.016V42.344H38.968V43.232H36.016V47H34.924V38.636H39.652ZM43.8389 47.108C43.2229 47.108 42.6629 46.968 42.1589 46.688C41.6629 46.408 41.2709 46.012 40.9829 45.5C40.7029 44.98 40.5629 44.38 40.5629 43.7C40.5629 43.028 40.7069 42.436 40.9949 41.924C41.2909 41.404 41.6909 41.008 42.1949 40.736C42.6989 40.456 43.2629 40.316 43.8869 40.316C44.5109 40.316 45.0749 40.456 45.5789 40.736C46.0829 41.008 46.4789 41.4 46.7669 41.912C47.0629 42.424 47.2109 43.02 47.2109 43.7C47.2109 44.38 47.0589 44.98 46.7549 45.5C46.4589 46.012 46.0549 46.408 45.5429 46.688C45.0309 46.968 44.4629 47.108 43.8389 47.108ZM43.8389 46.148C44.2309 46.148 44.5989 46.056 44.9429 45.872C45.2869 45.688 45.5629 45.412 45.7709 45.044C45.9869 44.676 46.0949 44.228 46.0949 43.7C46.0949 43.172 45.9909 42.724 45.7829 42.356C45.5749 41.988 45.3029 41.716 44.9669 41.54C44.6309 41.356 44.2669 41.264 43.8749 41.264C43.4749 41.264 43.1069 41.356 42.7709 41.54C42.4429 41.716 42.1789 41.988 41.9789 42.356C41.7789 42.724 41.6789 43.172 41.6789 43.7C41.6789 44.236 41.7749 44.688 41.9669 45.056C42.1669 45.424 42.4309 45.7 42.7589 45.884C43.0869 46.06 43.4469 46.148 43.8389 46.148ZM49.7387 38.12V47H48.6467V38.12H49.7387ZM52.6918 38.12V47H51.5998V38.12H52.6918ZM57.4209 47.108C56.8049 47.108 56.2449 46.968 55.7409 46.688C55.2449 46.408 54.8529 46.012 54.5649 45.5C54.2849 44.98 54.1449 44.38 54.1449 43.7C54.1449 43.028 54.2889 42.436 54.5769 41.924C54.8729 41.404 55.2729 41.008 55.7769 40.736C56.2809 40.456 56.8449 40.316 57.4689 40.316C58.0929 40.316 58.6569 40.456 59.1609 40.736C59.6649 41.008 60.0609 41.4 60.3489 41.912C60.6449 42.424 60.7929 43.02 60.7929 43.7C60.7929 44.38 60.6409 44.98 60.3369 45.5C60.0409 46.012 59.6369 46.408 59.1249 46.688C58.6129 46.968 58.0449 47.108 57.4209 47.108ZM57.4209 46.148C57.8129 46.148 58.1809 46.056 58.5249 45.872C58.8689 45.688 59.1449 45.412 59.3529 45.044C59.5689 44.676 59.6769 44.228 59.6769 43.7C59.6769 43.172 59.5729 42.724 59.3649 42.356C59.1569 41.988 58.8849 41.716 58.5489 41.54C58.2129 41.356 57.8489 41.264 57.4569 41.264C57.0569 41.264 56.6889 41.356 56.3529 41.54C56.0249 41.716 55.7609 41.988 55.5609 42.356C55.3609 42.724 55.2609 43.172 55.2609 43.7C55.2609 44.236 55.3569 44.688 55.5489 45.056C55.7489 45.424 56.0129 45.7 56.3409 45.884C56.6689 46.06 57.0289 46.148 57.4209 46.148ZM70.9887 40.424L68.9367 47H67.8087L66.2247 41.78L64.6407 47H63.5127L61.4487 40.424H62.5647L64.0767 45.944L65.7087 40.424H66.8247L68.4207 45.956L69.9087 40.424H70.9887ZM83.1797 40.304C83.6917 40.304 84.1477 40.412 84.5477 40.628C84.9477 40.836 85.2637 41.152 85.4957 41.576C85.7277 42 85.8437 42.516 85.8437 43.124V47H84.7637V43.28C84.7637 42.624 84.5997 42.124 84.2717 41.78C83.9517 41.428 83.5157 41.252 82.9637 41.252C82.3957 41.252 81.9437 41.436 81.6077 41.804C81.2717 42.164 81.1037 42.688 81.1037 43.376V47H80.0237V43.28C80.0237 42.624 79.8597 42.124 79.5317 41.78C79.2117 41.428 78.7757 41.252 78.2237 41.252C77.6557 41.252 77.2037 41.436 76.8677 41.804C76.5317 42.164 76.3637 42.688 76.3637 43.376V47H75.2717V40.424H76.3637V41.372C76.5797 41.028 76.8677 40.764 77.2277 40.58C77.5957 40.396 77.9997 40.304 78.4397 40.304C78.9917 40.304 79.4797 40.428 79.9037 40.676C80.3277 40.924 80.6437 41.288 80.8517 41.768C81.0357 41.304 81.3397 40.944 81.7637 40.688C82.1877 40.432 82.6597 40.304 83.1797 40.304ZM93.6349 43.46C93.6349 43.668 93.6229 43.888 93.5989 44.12H88.3429C88.3829 44.768 88.6029 45.276 89.0029 45.644C89.4109 46.004 89.9029 46.184 90.4789 46.184C90.9509 46.184 91.3429 46.076 91.6549 45.86C91.9749 45.636 92.1989 45.34 92.3269 44.972H93.5029C93.3269 45.604 92.9749 46.12 92.4469 46.52C91.9189 46.912 91.2629 47.108 90.4789 47.108C89.8549 47.108 89.2949 46.968 88.7989 46.688C88.3109 46.408 87.9269 46.012 87.6469 45.5C87.3669 44.98 87.2269 44.38 87.2269 43.7C87.2269 43.02 87.3629 42.424 87.6349 41.912C87.9069 41.4 88.2869 41.008 88.7749 40.736C89.2709 40.456 89.8389 40.316 90.4789 40.316C91.1029 40.316 91.6549 40.452 92.1349 40.724C92.6149 40.996 92.9829 41.372 93.2389 41.852C93.5029 42.324 93.6349 42.86 93.6349 43.46ZM92.5069 43.232C92.5069 42.816 92.4149 42.46 92.2309 42.164C92.0469 41.86 91.7949 41.632 91.4749 41.48C91.1629 41.32 90.8149 41.24 90.4309 41.24C89.8789 41.24 89.4069 41.416 89.0149 41.768C88.6309 42.12 88.4109 42.608 88.3549 43.232H92.5069ZM96.4923 38.636L96.3603 44.636H95.4483L95.3163 38.636H96.4923ZM95.9523 47.072C95.7443 47.072 95.5683 47 95.4243 46.856C95.2803 46.712 95.2083 46.536 95.2083 46.328C95.2083 46.12 95.2803 45.944 95.4243 45.8C95.5683 45.656 95.7443 45.584 95.9523 45.584C96.1523 45.584 96.3203 45.656 96.4563 45.8C96.6003 45.944 96.6723 46.12 96.6723 46.328C96.6723 46.536 96.6003 46.712 96.4563 46.856C96.3203 47 96.1523 47.072 95.9523 47.072Z" fill="white"/>
<path d="M183.057 23.0728C184.746 23.0728 186.115 21.7133 186.115 20.0364C186.115 18.3594 184.746 17 183.057 17C181.369 17 180 18.3594 180 20.0364C180 21.7133 181.369 23.0728 183.057 23.0728Z" fill="white"/>
<path d="M185.608 26.806H180.512C180.231 26.806 180.003 27.0327 180.003 27.3121V42.494C180.003 42.7733 180.231 43.0001 180.512 43.0001H185.608C185.889 43.0001 186.117 42.7733 186.117 42.494V27.3121C186.117 27.0327 185.889 26.806 185.608 26.806Z" fill="white"/>
<path d="M200.796 25.9639C198.618 25.223 195.894 25.8738 194.26 27.0408C194.204 26.8232 194.004 26.6612 193.767 26.6612H188.671C188.39 26.6612 188.162 26.8879 188.162 27.1673V42.3492C188.162 42.6285 188.39 42.8552 188.671 42.8552H193.767C194.048 42.8552 194.276 42.6285 194.276 42.3492V31.4385C195.1 30.734 196.161 30.5093 197.029 30.8757C197.871 31.229 198.353 32.0913 198.353 33.24V42.3492C198.353 42.6285 198.581 42.8552 198.862 42.8552H203.958C204.239 42.8552 204.467 42.6285 204.467 42.3492V32.2208C204.409 28.062 202.439 26.5226 200.796 25.9639Z" fill="white"/>
</svg>
