<svg width="240" height="62" viewBox="0 0 240 62" fill="none" xmlns="http://www.w3.org/2000/svg">
<rect width="240" height="62" fill="#FF1747"/>
<path d="M43.248 19.288C43.248 19.8853 43.104 20.4453 42.816 20.968C42.5387 21.4907 42.096 21.912 41.488 22.232C40.8907 22.552 40.1333 22.712 39.216 22.712H37.344V27H35.104V15.832H39.216C40.08 15.832 40.816 15.9813 41.424 16.28C42.032 16.5787 42.4853 16.9893 42.784 17.512C43.0933 18.0347 43.248 18.6267 43.248 19.288ZM39.12 20.904C39.7387 20.904 40.1973 20.7653 40.496 20.488C40.7947 20.2 40.944 19.8 40.944 19.288C40.944 18.2 40.336 17.656 39.12 17.656H37.344V20.904H39.12ZM45.9744 17.08C45.5797 17.08 45.249 16.9573 44.9824 16.712C44.7264 16.456 44.5984 16.1413 44.5984 15.768C44.5984 15.3947 44.7264 15.0853 44.9824 14.84C45.249 14.584 45.5797 14.456 45.9744 14.456C46.369 14.456 46.6944 14.584 46.9504 14.84C47.217 15.0853 47.3504 15.3947 47.3504 15.768C47.3504 16.1413 47.217 16.456 46.9504 16.712C46.6944 16.9573 46.369 17.08 45.9744 17.08ZM47.0784 18.136V27H44.8384V18.136H47.0784ZM54.2035 18.008C55.2595 18.008 56.1128 18.344 56.7635 19.016C57.4142 19.6773 57.7395 20.6053 57.7395 21.8V27H55.4995V22.104C55.4995 21.4 55.3235 20.8613 54.9715 20.488C54.6195 20.104 54.1395 19.912 53.5315 19.912C52.9128 19.912 52.4222 20.104 52.0595 20.488C51.7075 20.8613 51.5315 21.4 51.5315 22.104V27H49.2915V18.136H51.5315V19.24C51.8302 18.856 52.2088 18.5573 52.6675 18.344C53.1368 18.12 53.6488 18.008 54.2035 18.008ZM62.4776 19.976V24.264C62.4776 24.5627 62.547 24.7813 62.6856 24.92C62.835 25.048 63.0803 25.112 63.4216 25.112H64.4616V27H63.0536C61.1656 27 60.2216 26.0827 60.2216 24.248V19.976H59.1656V18.136H60.2216V15.944H62.4776V18.136H64.4616V19.976H62.4776ZM74.3128 22.376C74.3128 22.696 74.2914 22.984 74.2488 23.24H67.7688C67.8221 23.88 68.0461 24.3813 68.4408 24.744C68.8354 25.1067 69.3208 25.288 69.8968 25.288C70.7288 25.288 71.3208 24.9307 71.6728 24.216H74.0888C73.8328 25.0693 73.3421 25.7733 72.6168 26.328C71.8914 26.872 71.0008 27.144 69.9448 27.144C69.0914 27.144 68.3234 26.9573 67.6408 26.584C66.9688 26.2 66.4408 25.6613 66.0568 24.968C65.6834 24.2747 65.4967 23.4747 65.4967 22.568C65.4967 21.6507 65.6834 20.8453 66.0568 20.152C66.4301 19.4587 66.9528 18.9253 67.6248 18.552C68.2968 18.1787 69.0701 17.992 69.9448 17.992C70.7874 17.992 71.5394 18.1733 72.2008 18.536C72.8728 18.8987 73.3901 19.416 73.7528 20.088C74.1261 20.7493 74.3128 21.512 74.3128 22.376ZM71.9928 21.736C71.9821 21.16 71.7741 20.7013 71.3688 20.36C70.9634 20.008 70.4674 19.832 69.8808 19.832C69.3261 19.832 68.8568 20.0027 68.4728 20.344C68.0994 20.6747 67.8701 21.1387 67.7848 21.736H71.9928ZM78.1878 19.512C78.4758 19.0427 78.8491 18.6747 79.3078 18.408C79.7771 18.1413 80.3104 18.008 80.9078 18.008V20.36H80.3158C79.6118 20.36 79.0784 20.5253 78.7158 20.856C78.3638 21.1867 78.1878 21.7627 78.1878 22.584V27H75.9478V18.136H78.1878V19.512ZM90.6565 22.376C90.6565 22.696 90.6352 22.984 90.5925 23.24H84.1125C84.1658 23.88 84.3898 24.3813 84.7845 24.744C85.1792 25.1067 85.6645 25.288 86.2405 25.288C87.0725 25.288 87.6645 24.9307 88.0165 24.216H90.4325C90.1765 25.0693 89.6858 25.7733 88.9605 26.328C88.2352 26.872 87.3445 27.144 86.2885 27.144C85.4352 27.144 84.6672 26.9573 83.9845 26.584C83.3125 26.2 82.7845 25.6613 82.4005 24.968C82.0272 24.2747 81.8405 23.4747 81.8405 22.568C81.8405 21.6507 82.0272 20.8453 82.4005 20.152C82.7738 19.4587 83.2965 18.9253 83.9685 18.552C84.6405 18.1787 85.4138 17.992 86.2885 17.992C87.1312 17.992 87.8832 18.1733 88.5445 18.536C89.2165 18.8987 89.7338 19.416 90.0965 20.088C90.4698 20.7493 90.6565 21.512 90.6565 22.376ZM88.3365 21.736C88.3258 21.16 88.1178 20.7013 87.7125 20.36C87.3072 20.008 86.8112 19.832 86.2245 19.832C85.6698 19.832 85.2005 20.0027 84.8165 20.344C84.4432 20.6747 84.2138 21.1387 84.1285 21.736H88.3365ZM95.6835 27.144C94.9582 27.144 94.3075 27.016 93.7315 26.76C93.1555 26.4933 92.6968 26.136 92.3555 25.688C92.0248 25.24 91.8435 24.744 91.8115 24.2H94.0675C94.1102 24.5413 94.2755 24.824 94.5635 25.048C94.8622 25.272 95.2302 25.384 95.6675 25.384C96.0942 25.384 96.4248 25.2987 96.6595 25.128C96.9048 24.9573 97.0275 24.7387 97.0275 24.472C97.0275 24.184 96.8782 23.9707 96.5795 23.832C96.2915 23.6827 95.8275 23.5227 95.1875 23.352C94.5262 23.192 93.9822 23.0267 93.5555 22.856C93.1395 22.6853 92.7768 22.424 92.4675 22.072C92.1688 21.72 92.0195 21.2453 92.0195 20.648C92.0195 20.1573 92.1582 19.7093 92.4355 19.304C92.7235 18.8987 93.1288 18.5787 93.6515 18.344C94.1848 18.1093 94.8088 17.992 95.5235 17.992C96.5795 17.992 97.4222 18.2587 98.0515 18.792C98.6808 19.3147 99.0275 20.024 99.0915 20.92H96.9475C96.9155 20.568 96.7662 20.2907 96.4995 20.088C96.2435 19.8747 95.8968 19.768 95.4595 19.768C95.0542 19.768 94.7395 19.8427 94.5155 19.992C94.3022 20.1413 94.1955 20.3493 94.1955 20.616C94.1955 20.9147 94.3448 21.144 94.6435 21.304C94.9422 21.4533 95.4062 21.608 96.0355 21.768C96.6755 21.928 97.2035 22.0933 97.6195 22.264C98.0355 22.4347 98.3928 22.7013 98.6915 23.064C99.0008 23.416 99.1608 23.8853 99.1715 24.472C99.1715 24.984 99.0275 25.4427 98.7395 25.848C98.4622 26.2533 98.0568 26.5733 97.5235 26.808C97.0008 27.032 96.3875 27.144 95.6835 27.144ZM103.618 19.976V24.264C103.618 24.5627 103.688 24.7813 103.826 24.92C103.976 25.048 104.221 25.112 104.562 25.112H105.602V27H104.194C102.306 27 101.362 26.0827 101.362 24.248V19.976H100.306V18.136H101.362V15.944H103.618V18.136H105.602V19.976H103.618Z" fill="white"/>
<path d="M39.652 38.636V39.524H36.016V42.344H38.968V43.232H36.016V47H34.924V38.636H39.652ZM43.8389 47.108C43.2229 47.108 42.6629 46.968 42.1589 46.688C41.6629 46.408 41.2709 46.012 40.9829 45.5C40.7029 44.98 40.5629 44.38 40.5629 43.7C40.5629 43.028 40.7069 42.436 40.9949 41.924C41.2909 41.404 41.6909 41.008 42.1949 40.736C42.6989 40.456 43.2629 40.316 43.8869 40.316C44.5109 40.316 45.0749 40.456 45.5789 40.736C46.0829 41.008 46.4789 41.4 46.7669 41.912C47.0629 42.424 47.2109 43.02 47.2109 43.7C47.2109 44.38 47.0589 44.98 46.7549 45.5C46.4589 46.012 46.0549 46.408 45.5429 46.688C45.0309 46.968 44.4629 47.108 43.8389 47.108ZM43.8389 46.148C44.2309 46.148 44.5989 46.056 44.9429 45.872C45.2869 45.688 45.5629 45.412 45.7709 45.044C45.9869 44.676 46.0949 44.228 46.0949 43.7C46.0949 43.172 45.9909 42.724 45.7829 42.356C45.5749 41.988 45.3029 41.716 44.9669 41.54C44.6309 41.356 44.2669 41.264 43.8749 41.264C43.4749 41.264 43.1069 41.356 42.7709 41.54C42.4429 41.716 42.1789 41.988 41.9789 42.356C41.7789 42.724 41.6789 43.172 41.6789 43.7C41.6789 44.236 41.7749 44.688 41.9669 45.056C42.1669 45.424 42.4309 45.7 42.7589 45.884C43.0869 46.06 43.4469 46.148 43.8389 46.148ZM49.7387 38.12V47H48.6467V38.12H49.7387ZM52.6918 38.12V47H51.5998V38.12H52.6918ZM57.4209 47.108C56.8049 47.108 56.2449 46.968 55.7409 46.688C55.2449 46.408 54.8529 46.012 54.5649 45.5C54.2849 44.98 54.1449 44.38 54.1449 43.7C54.1449 43.028 54.2889 42.436 54.5769 41.924C54.8729 41.404 55.2729 41.008 55.7769 40.736C56.2809 40.456 56.8449 40.316 57.4689 40.316C58.0929 40.316 58.6569 40.456 59.1609 40.736C59.6649 41.008 60.0609 41.4 60.3489 41.912C60.6449 42.424 60.7929 43.02 60.7929 43.7C60.7929 44.38 60.6409 44.98 60.3369 45.5C60.0409 46.012 59.6369 46.408 59.1249 46.688C58.6129 46.968 58.0449 47.108 57.4209 47.108ZM57.4209 46.148C57.8129 46.148 58.1809 46.056 58.5249 45.872C58.8689 45.688 59.1449 45.412 59.3529 45.044C59.5689 44.676 59.6769 44.228 59.6769 43.7C59.6769 43.172 59.5729 42.724 59.3649 42.356C59.1569 41.988 58.8849 41.716 58.5489 41.54C58.2129 41.356 57.8489 41.264 57.4569 41.264C57.0569 41.264 56.6889 41.356 56.3529 41.54C56.0249 41.716 55.7609 41.988 55.5609 42.356C55.3609 42.724 55.2609 43.172 55.2609 43.7C55.2609 44.236 55.3569 44.688 55.5489 45.056C55.7489 45.424 56.0129 45.7 56.3409 45.884C56.6689 46.06 57.0289 46.148 57.4209 46.148ZM70.9887 40.424L68.9367 47H67.8087L66.2247 41.78L64.6407 47H63.5127L61.4487 40.424H62.5647L64.0767 45.944L65.7087 40.424H66.8247L68.4207 45.956L69.9087 40.424H70.9887ZM83.1797 40.304C83.6917 40.304 84.1477 40.412 84.5477 40.628C84.9477 40.836 85.2637 41.152 85.4957 41.576C85.7277 42 85.8437 42.516 85.8437 43.124V47H84.7637V43.28C84.7637 42.624 84.5997 42.124 84.2717 41.78C83.9517 41.428 83.5157 41.252 82.9637 41.252C82.3957 41.252 81.9437 41.436 81.6077 41.804C81.2717 42.164 81.1037 42.688 81.1037 43.376V47H80.0237V43.28C80.0237 42.624 79.8597 42.124 79.5317 41.78C79.2117 41.428 78.7757 41.252 78.2237 41.252C77.6557 41.252 77.2037 41.436 76.8677 41.804C76.5317 42.164 76.3637 42.688 76.3637 43.376V47H75.2717V40.424H76.3637V41.372C76.5797 41.028 76.8677 40.764 77.2277 40.58C77.5957 40.396 77.9997 40.304 78.4397 40.304C78.9917 40.304 79.4797 40.428 79.9037 40.676C80.3277 40.924 80.6437 41.288 80.8517 41.768C81.0357 41.304 81.3397 40.944 81.7637 40.688C82.1877 40.432 82.6597 40.304 83.1797 40.304ZM93.6349 43.46C93.6349 43.668 93.6229 43.888 93.5989 44.12H88.3429C88.3829 44.768 88.6029 45.276 89.0029 45.644C89.4109 46.004 89.9029 46.184 90.4789 46.184C90.9509 46.184 91.3429 46.076 91.6549 45.86C91.9749 45.636 92.1989 45.34 92.3269 44.972H93.5029C93.3269 45.604 92.9749 46.12 92.4469 46.52C91.9189 46.912 91.2629 47.108 90.4789 47.108C89.8549 47.108 89.2949 46.968 88.7989 46.688C88.3109 46.408 87.9269 46.012 87.6469 45.5C87.3669 44.98 87.2269 44.38 87.2269 43.7C87.2269 43.02 87.3629 42.424 87.6349 41.912C87.9069 41.4 88.2869 41.008 88.7749 40.736C89.2709 40.456 89.8389 40.316 90.4789 40.316C91.1029 40.316 91.6549 40.452 92.1349 40.724C92.6149 40.996 92.9829 41.372 93.2389 41.852C93.5029 42.324 93.6349 42.86 93.6349 43.46ZM92.5069 43.232C92.5069 42.816 92.4149 42.46 92.2309 42.164C92.0469 41.86 91.7949 41.632 91.4749 41.48C91.1629 41.32 90.8149 41.24 90.4309 41.24C89.8789 41.24 89.4069 41.416 89.0149 41.768C88.6309 42.12 88.4109 42.608 88.3549 43.232H92.5069ZM96.4923 38.636L96.3603 44.636H95.4483L95.3163 38.636H96.4923ZM95.9523 47.072C95.7443 47.072 95.5683 47 95.4243 46.856C95.2803 46.712 95.2083 46.536 95.2083 46.328C95.2083 46.12 95.2803 45.944 95.4243 45.8C95.5683 45.656 95.7443 45.584 95.9523 45.584C96.1523 45.584 96.3203 45.656 96.4563 45.8C96.6003 45.944 96.6723 46.12 96.6723 46.328C96.6723 46.536 96.6003 46.712 96.4563 46.856C96.3203 47 96.1523 47.072 95.9523 47.072Z" fill="white"/>
<path d="M192.609 17.3299C187.399 17.3299 182.25 20.8033 182.25 26.425C182.25 30 184.261 32.0313 185.48 32.0313C185.983 32.0313 186.272 30.6297 186.272 30.234C186.272 29.762 185.069 28.7561 185.069 26.7906C185.069 22.7078 188.176 19.8129 192.198 19.8129C195.656 19.8129 198.216 21.7783 198.216 25.3891C198.216 28.0858 197.134 33.1436 193.63 33.1436C192.366 33.1436 191.283 32.2295 191.283 30.9198C191.283 28.9998 192.624 27.1416 192.624 25.1608C192.624 21.7995 187.855 22.4088 187.855 26.4713C187.855 27.3245 187.962 28.2686 188.343 29.0461C187.642 32.063 186.21 36.5569 186.21 39.6647C186.21 40.6243 186.347 41.5692 186.438 42.5288C186.611 42.7221 186.525 42.7018 186.789 42.6051C189.348 39.1008 189.257 38.4159 190.415 33.8301C191.04 35.0188 192.654 35.6583 193.934 35.6583C199.326 35.6583 201.749 30.4022 201.749 25.6645C201.749 20.6221 197.392 17.3315 192.609 17.3315L192.609 17.3299Z" fill="white"/>
</svg>
