<svg width="240" height="62" viewBox="0 0 240 62" fill="none" xmlns="http://www.w3.org/2000/svg">
<rect width="240" height="62" fill="#00A2F9"/>
<path d="M38.96 27.112C38.1813 27.112 37.4773 26.9787 36.848 26.712C36.2293 26.4453 35.7387 26.0613 35.376 25.56C35.0133 25.0587 34.8267 24.4667 34.816 23.784H37.216C37.248 24.2427 37.408 24.6053 37.696 24.872C37.9947 25.1387 38.4 25.272 38.912 25.272C39.4347 25.272 39.8453 25.1493 40.144 24.904C40.4427 24.648 40.592 24.3173 40.592 23.912C40.592 23.5813 40.4907 23.3093 40.288 23.096C40.0853 22.8827 39.8293 22.7173 39.52 22.6C39.2213 22.472 38.8053 22.3333 38.272 22.184C37.5467 21.9707 36.9547 21.7627 36.496 21.56C36.048 21.3467 35.6587 21.032 35.328 20.616C35.008 20.1893 34.848 19.624 34.848 18.92C34.848 18.2587 35.0133 17.6827 35.344 17.192C35.6747 16.7013 36.1387 16.328 36.736 16.072C37.3333 15.8053 38.016 15.672 38.784 15.672C39.936 15.672 40.8693 15.9547 41.584 16.52C42.3093 17.0747 42.7093 17.8533 42.784 18.856H40.32C40.2987 18.472 40.1333 18.1573 39.824 17.912C39.5253 17.656 39.1253 17.528 38.624 17.528C38.1867 17.528 37.8347 17.64 37.568 17.864C37.312 18.088 37.184 18.4133 37.184 18.84C37.184 19.1387 37.28 19.3893 37.472 19.592C37.6747 19.784 37.92 19.944 38.208 20.072C38.5067 20.1893 38.9227 20.328 39.456 20.488C40.1813 20.7013 40.7733 20.9147 41.232 21.128C41.6907 21.3413 42.0853 21.6613 42.416 22.088C42.7467 22.5147 42.912 23.0747 42.912 23.768C42.912 24.3653 42.7573 24.92 42.448 25.432C42.1387 25.944 41.6853 26.3547 41.088 26.664C40.4907 26.9627 39.7813 27.112 38.96 27.112ZM49.766 18.008C50.822 18.008 51.6753 18.344 52.326 19.016C52.9767 19.6773 53.302 20.6053 53.302 21.8V27H51.062V22.104C51.062 21.4 50.886 20.8613 50.534 20.488C50.182 20.104 49.702 19.912 49.094 19.912C48.4753 19.912 47.9847 20.104 47.622 20.488C47.27 20.8613 47.094 21.4 47.094 22.104V27H44.854V18.136H47.094V19.24C47.3927 18.856 47.7713 18.5573 48.23 18.344C48.6993 18.12 49.2113 18.008 49.766 18.008ZM54.8561 22.536C54.8561 21.64 55.0321 20.8453 55.3841 20.152C55.7468 19.4587 56.2321 18.9253 56.8401 18.552C57.4588 18.1787 58.1468 17.992 58.9041 17.992C59.5655 17.992 60.1415 18.1253 60.6321 18.392C61.1335 18.6587 61.5335 18.9947 61.8321 19.4V18.136H64.0881V27H61.8321V25.704C61.5441 26.12 61.1441 26.4667 60.6321 26.744C60.1308 27.0107 59.5495 27.144 58.8881 27.144C58.1415 27.144 57.4588 26.952 56.8401 26.568C56.2321 26.184 55.7468 25.6453 55.3841 24.952C55.0321 24.248 54.8561 23.4427 54.8561 22.536ZM61.8321 22.568C61.8321 22.024 61.7255 21.56 61.5121 21.176C61.2988 20.7813 61.0108 20.4827 60.6481 20.28C60.2855 20.0667 59.8961 19.96 59.4801 19.96C59.0641 19.96 58.6801 20.0613 58.3281 20.264C57.9761 20.4667 57.6881 20.7653 57.4641 21.16C57.2508 21.544 57.1441 22.0027 57.1441 22.536C57.1441 23.0693 57.2508 23.5387 57.4641 23.944C57.6881 24.3387 57.9761 24.6427 58.3281 24.856C58.6908 25.0693 59.0748 25.176 59.4801 25.176C59.8961 25.176 60.2855 25.0747 60.6481 24.872C61.0108 24.6587 61.2988 24.36 61.5121 23.976C61.7255 23.5813 61.8321 23.112 61.8321 22.568ZM68.5159 19.416C68.8039 19.0107 69.1985 18.6747 69.6999 18.408C70.2119 18.1307 70.7932 17.992 71.4439 17.992C72.2012 17.992 72.8839 18.1787 73.4919 18.552C74.1105 18.9253 74.5959 19.4587 74.9479 20.152C75.3105 20.8347 75.4919 21.6293 75.4919 22.536C75.4919 23.4427 75.3105 24.248 74.9479 24.952C74.5959 25.6453 74.1105 26.184 73.4919 26.568C72.8839 26.952 72.2012 27.144 71.4439 27.144C70.7932 27.144 70.2172 27.0107 69.7159 26.744C69.2252 26.4773 68.8252 26.1413 68.5159 25.736V31.224H66.2759V18.136H68.5159V19.416ZM73.2039 22.536C73.2039 22.0027 73.0919 21.544 72.8679 21.16C72.6545 20.7653 72.3665 20.4667 72.0039 20.264C71.6519 20.0613 71.2679 19.96 70.8519 19.96C70.4465 19.96 70.0625 20.0667 69.6999 20.28C69.3479 20.4827 69.0599 20.7813 68.8359 21.176C68.6225 21.5707 68.5159 22.0347 68.5159 22.568C68.5159 23.1013 68.6225 23.5653 68.8359 23.96C69.0599 24.3547 69.3479 24.6587 69.6999 24.872C70.0625 25.0747 70.4465 25.176 70.8519 25.176C71.2679 25.176 71.6519 25.0693 72.0039 24.856C72.3665 24.6427 72.6545 24.3387 72.8679 23.944C73.0919 23.5493 73.2039 23.08 73.2039 22.536ZM76.5436 22.568C76.5436 21.6507 76.7303 20.8507 77.1036 20.168C77.477 19.4747 77.9943 18.9413 78.6556 18.568C79.317 18.184 80.0743 17.992 80.9276 17.992C82.0263 17.992 82.933 18.2693 83.6476 18.824C84.373 19.368 84.8583 20.136 85.1036 21.128H82.6876C82.5596 20.744 82.341 20.4453 82.0316 20.232C81.733 20.008 81.3596 19.896 80.9116 19.896C80.2716 19.896 79.765 20.1307 79.3916 20.6C79.0183 21.0587 78.8316 21.7147 78.8316 22.568C78.8316 23.4107 79.0183 24.0667 79.3916 24.536C79.765 24.9947 80.2716 25.224 80.9116 25.224C81.8183 25.224 82.4103 24.8187 82.6876 24.008H85.1036C84.8583 24.968 84.373 25.7307 83.6476 26.296C82.9223 26.8613 82.0156 27.144 80.9276 27.144C80.0743 27.144 79.317 26.9573 78.6556 26.584C77.9943 26.2 77.477 25.6667 77.1036 24.984C76.7303 24.2907 76.5436 23.4853 76.5436 22.568ZM91.7366 18.008C92.4086 18.008 93.006 18.1573 93.5286 18.456C94.0513 18.744 94.4566 19.176 94.7446 19.752C95.0433 20.3173 95.1926 21 95.1926 21.8V27H92.9526V22.104C92.9526 21.4 92.7766 20.8613 92.4246 20.488C92.0726 20.104 91.5926 19.912 90.9846 19.912C90.366 19.912 89.8753 20.104 89.5126 20.488C89.1606 20.8613 88.9846 21.4 88.9846 22.104V27H86.7446V15.16H88.9846V19.24C89.2726 18.856 89.6566 18.5573 90.1366 18.344C90.6166 18.12 91.15 18.008 91.7366 18.008ZM96.7467 22.536C96.7467 21.64 96.9227 20.8453 97.2747 20.152C97.6374 19.4587 98.1228 18.9253 98.7308 18.552C99.3494 18.1787 100.037 17.992 100.795 17.992C101.456 17.992 102.032 18.1253 102.523 18.392C103.024 18.6587 103.424 18.9947 103.723 19.4V18.136H105.979V27H103.723V25.704C103.435 26.12 103.035 26.4667 102.523 26.744C102.021 27.0107 101.44 27.144 100.779 27.144C100.032 27.144 99.3494 26.952 98.7308 26.568C98.1228 26.184 97.6374 25.6453 97.2747 24.952C96.9227 24.248 96.7467 23.4427 96.7467 22.536ZM103.723 22.568C103.723 22.024 103.616 21.56 103.403 21.176C103.189 20.7813 102.901 20.4827 102.539 20.28C102.176 20.0667 101.787 19.96 101.371 19.96C100.955 19.96 100.571 20.0613 100.219 20.264C99.8668 20.4667 99.5788 20.7653 99.3548 21.16C99.1414 21.544 99.0348 22.0027 99.0348 22.536C99.0348 23.0693 99.1414 23.5387 99.3548 23.944C99.5788 24.3387 99.8668 24.6427 100.219 24.856C100.581 25.0693 100.965 25.176 101.371 25.176C101.787 25.176 102.176 25.0747 102.539 24.872C102.901 24.6587 103.189 24.36 103.403 23.976C103.616 23.5813 103.723 23.112 103.723 22.568ZM110.775 19.976V24.264C110.775 24.5627 110.844 24.7813 110.983 24.92C111.132 25.048 111.377 25.112 111.719 25.112H112.759V27H111.351C109.463 27 108.519 26.0827 108.519 24.248V19.976H107.463V18.136H108.519V15.944H110.775V18.136H112.759V19.976H110.775Z" fill="white"/>
<path d="M39.652 38.636V39.524H36.016V42.344H38.968V43.232H36.016V47H34.924V38.636H39.652ZM43.8389 47.108C43.2229 47.108 42.6629 46.968 42.1589 46.688C41.6629 46.408 41.2709 46.012 40.9829 45.5C40.7029 44.98 40.5629 44.38 40.5629 43.7C40.5629 43.028 40.7069 42.436 40.9949 41.924C41.2909 41.404 41.6909 41.008 42.1949 40.736C42.6989 40.456 43.2629 40.316 43.8869 40.316C44.5109 40.316 45.0749 40.456 45.5789 40.736C46.0829 41.008 46.4789 41.4 46.7669 41.912C47.0629 42.424 47.2109 43.02 47.2109 43.7C47.2109 44.38 47.0589 44.98 46.7549 45.5C46.4589 46.012 46.0549 46.408 45.5429 46.688C45.0309 46.968 44.4629 47.108 43.8389 47.108ZM43.8389 46.148C44.2309 46.148 44.5989 46.056 44.9429 45.872C45.2869 45.688 45.5629 45.412 45.7709 45.044C45.9869 44.676 46.0949 44.228 46.0949 43.7C46.0949 43.172 45.9909 42.724 45.7829 42.356C45.5749 41.988 45.3029 41.716 44.9669 41.54C44.6309 41.356 44.2669 41.264 43.8749 41.264C43.4749 41.264 43.1069 41.356 42.7709 41.54C42.4429 41.716 42.1789 41.988 41.9789 42.356C41.7789 42.724 41.6789 43.172 41.6789 43.7C41.6789 44.236 41.7749 44.688 41.9669 45.056C42.1669 45.424 42.4309 45.7 42.7589 45.884C43.0869 46.06 43.4469 46.148 43.8389 46.148ZM49.7387 38.12V47H48.6467V38.12H49.7387ZM52.6918 38.12V47H51.5998V38.12H52.6918ZM57.4209 47.108C56.8049 47.108 56.2449 46.968 55.7409 46.688C55.2449 46.408 54.8529 46.012 54.5649 45.5C54.2849 44.98 54.1449 44.38 54.1449 43.7C54.1449 43.028 54.2889 42.436 54.5769 41.924C54.8729 41.404 55.2729 41.008 55.7769 40.736C56.2809 40.456 56.8449 40.316 57.4689 40.316C58.0929 40.316 58.6569 40.456 59.1609 40.736C59.6649 41.008 60.0609 41.4 60.3489 41.912C60.6449 42.424 60.7929 43.02 60.7929 43.7C60.7929 44.38 60.6409 44.98 60.3369 45.5C60.0409 46.012 59.6369 46.408 59.1249 46.688C58.6129 46.968 58.0449 47.108 57.4209 47.108ZM57.4209 46.148C57.8129 46.148 58.1809 46.056 58.5249 45.872C58.8689 45.688 59.1449 45.412 59.3529 45.044C59.5689 44.676 59.6769 44.228 59.6769 43.7C59.6769 43.172 59.5729 42.724 59.3649 42.356C59.1569 41.988 58.8849 41.716 58.5489 41.54C58.2129 41.356 57.8489 41.264 57.4569 41.264C57.0569 41.264 56.6889 41.356 56.3529 41.54C56.0249 41.716 55.7609 41.988 55.5609 42.356C55.3609 42.724 55.2609 43.172 55.2609 43.7C55.2609 44.236 55.3569 44.688 55.5489 45.056C55.7489 45.424 56.0129 45.7 56.3409 45.884C56.6689 46.06 57.0289 46.148 57.4209 46.148ZM70.9887 40.424L68.9367 47H67.8087L66.2247 41.78L64.6407 47H63.5127L61.4487 40.424H62.5647L64.0767 45.944L65.7087 40.424H66.8247L68.4207 45.956L69.9087 40.424H70.9887ZM83.1797 40.304C83.6917 40.304 84.1477 40.412 84.5477 40.628C84.9477 40.836 85.2637 41.152 85.4957 41.576C85.7277 42 85.8437 42.516 85.8437 43.124V47H84.7637V43.28C84.7637 42.624 84.5997 42.124 84.2717 41.78C83.9517 41.428 83.5157 41.252 82.9637 41.252C82.3957 41.252 81.9437 41.436 81.6077 41.804C81.2717 42.164 81.1037 42.688 81.1037 43.376V47H80.0237V43.28C80.0237 42.624 79.8597 42.124 79.5317 41.78C79.2117 41.428 78.7757 41.252 78.2237 41.252C77.6557 41.252 77.2037 41.436 76.8677 41.804C76.5317 42.164 76.3637 42.688 76.3637 43.376V47H75.2717V40.424H76.3637V41.372C76.5797 41.028 76.8677 40.764 77.2277 40.58C77.5957 40.396 77.9997 40.304 78.4397 40.304C78.9917 40.304 79.4797 40.428 79.9037 40.676C80.3277 40.924 80.6437 41.288 80.8517 41.768C81.0357 41.304 81.3397 40.944 81.7637 40.688C82.1877 40.432 82.6597 40.304 83.1797 40.304ZM93.6349 43.46C93.6349 43.668 93.6229 43.888 93.5989 44.12H88.3429C88.3829 44.768 88.6029 45.276 89.0029 45.644C89.4109 46.004 89.9029 46.184 90.4789 46.184C90.9509 46.184 91.3429 46.076 91.6549 45.86C91.9749 45.636 92.1989 45.34 92.3269 44.972H93.5029C93.3269 45.604 92.9749 46.12 92.4469 46.52C91.9189 46.912 91.2629 47.108 90.4789 47.108C89.8549 47.108 89.2949 46.968 88.7989 46.688C88.3109 46.408 87.9269 46.012 87.6469 45.5C87.3669 44.98 87.2269 44.38 87.2269 43.7C87.2269 43.02 87.3629 42.424 87.6349 41.912C87.9069 41.4 88.2869 41.008 88.7749 40.736C89.2709 40.456 89.8389 40.316 90.4789 40.316C91.1029 40.316 91.6549 40.452 92.1349 40.724C92.6149 40.996 92.9829 41.372 93.2389 41.852C93.5029 42.324 93.6349 42.86 93.6349 43.46ZM92.5069 43.232C92.5069 42.816 92.4149 42.46 92.2309 42.164C92.0469 41.86 91.7949 41.632 91.4749 41.48C91.1629 41.32 90.8149 41.24 90.4309 41.24C89.8789 41.24 89.4069 41.416 89.0149 41.768C88.6309 42.12 88.4109 42.608 88.3549 43.232H92.5069ZM96.4923 38.636L96.3603 44.636H95.4483L95.3163 38.636H96.4923ZM95.9523 47.072C95.7443 47.072 95.5683 47 95.4243 46.856C95.2803 46.712 95.2083 46.536 95.2083 46.328C95.2083 46.12 95.2803 45.944 95.4243 45.8C95.5683 45.656 95.7443 45.584 95.9523 45.584C96.1523 45.584 96.3203 45.656 96.4563 45.8C96.6003 45.944 96.6723 46.12 96.6723 46.328C96.6723 46.536 96.6003 46.712 96.4563 46.856C96.3203 47 96.1523 47.072 95.9523 47.072Z" fill="white"/>
<path d="M199.814 27.7218C200.127 27.644 200.425 27.4356 200.732 27.4297C201.206 27.4179 201.741 27.413 202.144 27.6141C202.843 27.9632 202.899 28.7243 202.259 29.1874C201.747 29.5546 201.129 29.7971 200.532 30.0266C199.201 30.5405 199.024 30.9273 199.697 32.1874C200.812 34.275 202.373 35.8287 204.761 36.404C205.009 36.4625 205.406 36.7353 205.394 36.8789C205.367 37.2054 205.206 37.6852 204.959 37.7989C204.156 38.175 203.305 38.4941 202.44 38.6799C201.901 38.791 201.698 38.9901 201.585 39.498C201.342 40.5694 201.129 40.7027 200.091 40.4946C198.439 40.1618 196.987 40.4483 195.58 41.4641C192.741 43.5184 190.625 43.5095 187.791 41.4523C186.41 40.4454 184.979 40.1637 183.352 40.4979C182.261 40.7212 182.073 40.5894 181.813 39.4792C181.705 39.0253 181.535 38.7913 181.006 38.691C180.178 38.5325 179.372 38.2707 178.609 37.9118C178.303 37.7711 178.061 37.2854 178.001 36.9274C177.977 36.7804 178.488 36.4436 178.801 36.3566C181.372 35.6539 182.938 33.8948 183.991 31.5629C184.24 31.0113 184.03 30.6204 183.573 30.3642C183.166 30.1395 182.704 30.0122 182.27 29.8308C181.995 29.7153 181.715 29.6002 181.463 29.4443C180.951 29.1282 180.521 28.7354 180.817 28.0553C181.059 27.4963 181.854 27.1998 182.481 27.4005C182.836 27.513 183.183 27.6596 183.544 27.7392C184.018 27.841 184.285 27.7062 184.267 27.1261C184.225 25.809 184.15 24.4815 184.256 23.1702C184.481 20.3997 186.101 18.5713 188.594 17.5988C192.198 16.1991 196.502 17.2557 198.445 20.7425C199.127 21.9653 199.23 23.2883 199.287 24.6384C199.233 25.4851 199.19 26.3302 199.123 27.1724C199.081 27.7218 199.369 27.8325 199.814 27.7218Z" fill="white"/>
</svg>
