<svg width="240" height="62" viewBox="0 0 240 62" fill="none" xmlns="http://www.w3.org/2000/svg">
<rect width="240" height="62" fill="#FE9F39"/>
<path d="M42.704 15.832V17.64H39.728V27H37.488V17.64H34.512V15.832H42.704ZM56.6264 18.136L54.0344 27H51.6184L50.0024 20.808L48.3864 27H45.9544L43.3464 18.136H45.6184L47.1864 24.888L48.8824 18.136H51.2504L52.9144 24.872L54.4824 18.136H56.6264ZM58.9744 17.08C58.5797 17.08 58.249 16.9573 57.9824 16.712C57.7264 16.456 57.5984 16.1413 57.5984 15.768C57.5984 15.3947 57.7264 15.0853 57.9824 14.84C58.249 14.584 58.5797 14.456 58.9744 14.456C59.369 14.456 59.6944 14.584 59.9504 14.84C60.217 15.0853 60.3504 15.3947 60.3504 15.768C60.3504 16.1413 60.217 16.456 59.9504 16.712C59.6944 16.9573 59.369 17.08 58.9744 17.08ZM60.0784 18.136V27H57.8384V18.136H60.0784ZM64.8995 19.976V24.264C64.8995 24.5627 64.9688 24.7813 65.1075 24.92C65.2568 25.048 65.5022 25.112 65.8435 25.112H66.8835V27H65.4755C63.5875 27 62.6435 26.0827 62.6435 24.248V19.976H61.5875V18.136H62.6435V15.944H64.8995V18.136H66.8835V19.976H64.8995ZM71.1026 19.976V24.264C71.1026 24.5627 71.172 24.7813 71.3106 24.92C71.46 25.048 71.7053 25.112 72.0466 25.112H73.0866V27H71.6786C69.7906 27 68.8466 26.0827 68.8466 24.248V19.976H67.7906V18.136H68.8466V15.944H71.1026V18.136H73.0866V19.976H71.1026ZM82.9378 22.376C82.9378 22.696 82.9164 22.984 82.8738 23.24H76.3938C76.4471 23.88 76.6711 24.3813 77.0658 24.744C77.4604 25.1067 77.9458 25.288 78.5218 25.288C79.3538 25.288 79.9458 24.9307 80.2978 24.216H82.7138C82.4578 25.0693 81.9671 25.7733 81.2418 26.328C80.5164 26.872 79.6258 27.144 78.5698 27.144C77.7164 27.144 76.9484 26.9573 76.2658 26.584C75.5938 26.2 75.0658 25.6613 74.6818 24.968C74.3084 24.2747 74.1217 23.4747 74.1217 22.568C74.1217 21.6507 74.3084 20.8453 74.6818 20.152C75.0551 19.4587 75.5778 18.9253 76.2498 18.552C76.9218 18.1787 77.6951 17.992 78.5698 17.992C79.4124 17.992 80.1644 18.1733 80.8258 18.536C81.4978 18.8987 82.0151 19.416 82.3778 20.088C82.7511 20.7493 82.9378 21.512 82.9378 22.376ZM80.6178 21.736C80.6071 21.16 80.3991 20.7013 79.9938 20.36C79.5884 20.008 79.0924 19.832 78.5058 19.832C77.9511 19.832 77.4818 20.0027 77.0978 20.344C76.7244 20.6747 76.4951 21.1387 76.4098 21.736H80.6178ZM86.8128 19.512C87.1008 19.0427 87.4741 18.6747 87.9328 18.408C88.4021 18.1413 88.9354 18.008 89.5328 18.008V20.36H88.9408C88.2368 20.36 87.7034 20.5253 87.3408 20.856C86.9888 21.1867 86.8128 21.7627 86.8128 22.584V27H84.5728V18.136H86.8128V19.512Z" fill="white"/>
<path d="M39.652 38.636V39.524H36.016V42.344H38.968V43.232H36.016V47H34.924V38.636H39.652ZM43.8389 47.108C43.2229 47.108 42.6629 46.968 42.1589 46.688C41.6629 46.408 41.2709 46.012 40.9829 45.5C40.7029 44.98 40.5629 44.38 40.5629 43.7C40.5629 43.028 40.7069 42.436 40.9949 41.924C41.2909 41.404 41.6909 41.008 42.1949 40.736C42.6989 40.456 43.2629 40.316 43.8869 40.316C44.5109 40.316 45.0749 40.456 45.5789 40.736C46.0829 41.008 46.4789 41.4 46.7669 41.912C47.0629 42.424 47.2109 43.02 47.2109 43.7C47.2109 44.38 47.0589 44.98 46.7549 45.5C46.4589 46.012 46.0549 46.408 45.5429 46.688C45.0309 46.968 44.4629 47.108 43.8389 47.108ZM43.8389 46.148C44.2309 46.148 44.5989 46.056 44.9429 45.872C45.2869 45.688 45.5629 45.412 45.7709 45.044C45.9869 44.676 46.0949 44.228 46.0949 43.7C46.0949 43.172 45.9909 42.724 45.7829 42.356C45.5749 41.988 45.3029 41.716 44.9669 41.54C44.6309 41.356 44.2669 41.264 43.8749 41.264C43.4749 41.264 43.1069 41.356 42.7709 41.54C42.4429 41.716 42.1789 41.988 41.9789 42.356C41.7789 42.724 41.6789 43.172 41.6789 43.7C41.6789 44.236 41.7749 44.688 41.9669 45.056C42.1669 45.424 42.4309 45.7 42.7589 45.884C43.0869 46.06 43.4469 46.148 43.8389 46.148ZM49.7387 38.12V47H48.6467V38.12H49.7387ZM52.6918 38.12V47H51.5998V38.12H52.6918ZM57.4209 47.108C56.8049 47.108 56.2449 46.968 55.7409 46.688C55.2449 46.408 54.8529 46.012 54.5649 45.5C54.2849 44.98 54.1449 44.38 54.1449 43.7C54.1449 43.028 54.2889 42.436 54.5769 41.924C54.8729 41.404 55.2729 41.008 55.7769 40.736C56.2809 40.456 56.8449 40.316 57.4689 40.316C58.0929 40.316 58.6569 40.456 59.1609 40.736C59.6649 41.008 60.0609 41.4 60.3489 41.912C60.6449 42.424 60.7929 43.02 60.7929 43.7C60.7929 44.38 60.6409 44.98 60.3369 45.5C60.0409 46.012 59.6369 46.408 59.1249 46.688C58.6129 46.968 58.0449 47.108 57.4209 47.108ZM57.4209 46.148C57.8129 46.148 58.1809 46.056 58.5249 45.872C58.8689 45.688 59.1449 45.412 59.3529 45.044C59.5689 44.676 59.6769 44.228 59.6769 43.7C59.6769 43.172 59.5729 42.724 59.3649 42.356C59.1569 41.988 58.8849 41.716 58.5489 41.54C58.2129 41.356 57.8489 41.264 57.4569 41.264C57.0569 41.264 56.6889 41.356 56.3529 41.54C56.0249 41.716 55.7609 41.988 55.5609 42.356C55.3609 42.724 55.2609 43.172 55.2609 43.7C55.2609 44.236 55.3569 44.688 55.5489 45.056C55.7489 45.424 56.0129 45.7 56.3409 45.884C56.6689 46.06 57.0289 46.148 57.4209 46.148ZM70.9887 40.424L68.9367 47H67.8087L66.2247 41.78L64.6407 47H63.5127L61.4487 40.424H62.5647L64.0767 45.944L65.7087 40.424H66.8247L68.4207 45.956L69.9087 40.424H70.9887ZM83.1797 40.304C83.6917 40.304 84.1477 40.412 84.5477 40.628C84.9477 40.836 85.2637 41.152 85.4957 41.576C85.7277 42 85.8437 42.516 85.8437 43.124V47H84.7637V43.28C84.7637 42.624 84.5997 42.124 84.2717 41.78C83.9517 41.428 83.5157 41.252 82.9637 41.252C82.3957 41.252 81.9437 41.436 81.6077 41.804C81.2717 42.164 81.1037 42.688 81.1037 43.376V47H80.0237V43.28C80.0237 42.624 79.8597 42.124 79.5317 41.78C79.2117 41.428 78.7757 41.252 78.2237 41.252C77.6557 41.252 77.2037 41.436 76.8677 41.804C76.5317 42.164 76.3637 42.688 76.3637 43.376V47H75.2717V40.424H76.3637V41.372C76.5797 41.028 76.8677 40.764 77.2277 40.58C77.5957 40.396 77.9997 40.304 78.4397 40.304C78.9917 40.304 79.4797 40.428 79.9037 40.676C80.3277 40.924 80.6437 41.288 80.8517 41.768C81.0357 41.304 81.3397 40.944 81.7637 40.688C82.1877 40.432 82.6597 40.304 83.1797 40.304ZM93.6349 43.46C93.6349 43.668 93.6229 43.888 93.5989 44.12H88.3429C88.3829 44.768 88.6029 45.276 89.0029 45.644C89.4109 46.004 89.9029 46.184 90.4789 46.184C90.9509 46.184 91.3429 46.076 91.6549 45.86C91.9749 45.636 92.1989 45.34 92.3269 44.972H93.5029C93.3269 45.604 92.9749 46.12 92.4469 46.52C91.9189 46.912 91.2629 47.108 90.4789 47.108C89.8549 47.108 89.2949 46.968 88.7989 46.688C88.3109 46.408 87.9269 46.012 87.6469 45.5C87.3669 44.98 87.2269 44.38 87.2269 43.7C87.2269 43.02 87.3629 42.424 87.6349 41.912C87.9069 41.4 88.2869 41.008 88.7749 40.736C89.2709 40.456 89.8389 40.316 90.4789 40.316C91.1029 40.316 91.6549 40.452 92.1349 40.724C92.6149 40.996 92.9829 41.372 93.2389 41.852C93.5029 42.324 93.6349 42.86 93.6349 43.46ZM92.5069 43.232C92.5069 42.816 92.4149 42.46 92.2309 42.164C92.0469 41.86 91.7949 41.632 91.4749 41.48C91.1629 41.32 90.8149 41.24 90.4309 41.24C89.8789 41.24 89.4069 41.416 89.0149 41.768C88.6309 42.12 88.4109 42.608 88.3549 43.232H92.5069ZM96.4923 38.636L96.3603 44.636H95.4483L95.3163 38.636H96.4923ZM95.9523 47.072C95.7443 47.072 95.5683 47 95.4243 46.856C95.2803 46.712 95.2083 46.536 95.2083 46.328C95.2083 46.12 95.2803 45.944 95.4243 45.8C95.5683 45.656 95.7443 45.584 95.9523 45.584C96.1523 45.584 96.3203 45.656 96.4563 45.8C96.6003 45.944 96.6723 46.12 96.6723 46.328C96.6723 46.536 96.6003 46.712 96.4563 46.856C96.3203 47 96.1523 47.072 95.9523 47.072Z" fill="white"/>
<path d="M203.917 20.25C202.879 20.9818 201.731 21.5415 200.515 21.9075C199.863 21.1573 198.995 20.6256 198.031 20.3843C197.066 20.143 196.051 20.2037 195.122 20.5582C194.193 20.9127 193.396 21.544 192.837 22.3666C192.279 23.1891 191.987 24.1634 192 25.1575V26.2409C190.096 26.2902 188.21 25.868 186.509 25.0118C184.807 24.1555 183.344 22.8919 182.25 21.3334C182.25 21.3334 177.917 31.0834 187.667 35.4167C185.436 36.9312 182.778 37.6905 180.083 37.5834C189.833 43 201.75 37.5834 201.75 25.125C201.749 24.8233 201.72 24.5223 201.663 24.2259C202.769 23.1355 203.549 21.7588 203.917 20.25Z" fill="white"/>
</svg>
